<svg width="20" height="16" viewBox="0 0 20 16" fill="none" xmlns="http://www.w3.org/2000/svg">
<path d="M17.282 0H3.14207C1.77501 0 0.664062 1.11244 0.664062 2.4795V10.5166C0.664062 11.8584 1.74669 12.9544 3.09144 12.9946C3.00209 13.3312 2.87253 13.6901 2.69531 14.0966C2.18899 15.1584 3.37287 16.3736 4.4436 15.8911C5.50689 15.4592 7.03331 14.6104 8.34246 12.9961H17.282C18.649 12.9961 19.7615 11.8851 19.7615 10.5181V2.48095C19.7615 1.11389 18.649 0.00144847 17.282 0.00144847V0ZM18.1725 10.5151C18.1725 11.0051 17.7734 11.4042 17.282 11.4042H8.17548C7.79128 11.4042 7.43238 11.5799 7.19411 11.8852C6.27977 13.0512 5.2284 13.7571 4.37658 14.1785C4.85312 13.0646 5.09882 11.5293 3.51137 11.4042C2.88295 11.4727 2.26642 11.2136 2.25449 10.5151V2.47801C2.25449 1.98656 2.6536 1.58749 3.14352 1.58749H17.2834C17.7749 1.58749 18.1739 1.9866 18.1739 2.47801V10.5151H18.1725Z" fill="#747474"/>
</svg>
