<svg width="18" height="16" viewBox="0 0 18 16" fill="none" xmlns="http://www.w3.org/2000/svg">
<path d="M15.8136 2.2377C15.4213 1.84531 14.9557 1.53404 14.4431 1.32168C13.9306 1.10931 13.3813 1 12.8265 1C12.2717 1 11.7223 1.10931 11.2098 1.32168C10.6973 1.53404 10.2316 1.84531 9.83938 2.2377L9.02542 3.05166L8.21146 2.2377C7.41924 1.44548 6.34475 1.00041 5.22438 1.00041C4.104 1.00041 3.02951 1.44548 2.23729 2.2377C1.44507 3.02993 1 4.10441 1 5.22479C1 6.34516 1.44507 7.41965 2.23729 8.21187L3.05125 9.02583L9.02542 15L14.9996 9.02583L15.8136 8.21187C16.2059 7.81967 16.5172 7.354 16.7296 6.84146C16.9419 6.32893 17.0513 5.77958 17.0513 5.22479C17.0513 4.67 16.9419 4.12064 16.7296 3.60811C16.5172 3.09558 16.2059 2.6299 15.8136 2.2377Z" stroke="#747474" stroke-width="1.5" stroke-linecap="round" stroke-linejoin="round"/>
</svg>
