<svg width="17" height="20" viewBox="0 0 17 20" fill="none" xmlns="http://www.w3.org/2000/svg">
<path d="M15.7475 11.9798L15.5013 11.8154C15.4311 11.7664 15.3898 11.6856 15.3888 11.6V8.20477C15.3946 6.47496 14.7744 4.80093 13.6436 3.49138C12.5129 2.18175 10.9475 1.32405 9.23499 1.07693V0.769238C9.23499 0.344225 8.89076 0 8.46575 0C8.04074 0 7.69651 0.344225 7.69651 0.769238V1.07693C6.00515 1.26347 4.44159 2.06828 3.30607 3.33657C2.17048 4.60388 1.54259 6.24614 1.54259 7.94904V11.6C1.54162 11.6856 1.50028 11.7664 1.43009 11.8154L1.18393 11.9798C0.20989 12.625 -0.224748 13.8327 0.113717 14.95C0.451221 16.0682 1.482 16.8327 2.65035 16.8307H5.64558V17.1798C5.64558 18.7375 6.90809 20 8.46579 20C10.0235 20 11.286 18.7375 11.286 17.1798V16.8307H14.2812C15.4495 16.8327 16.4803 16.0682 16.8179 14.95C17.1563 13.8326 16.7216 12.6249 15.7475 11.9798ZM9.74744 17.1799C9.74744 17.8876 9.17341 18.4616 8.46571 18.4616C7.75801 18.4616 7.18397 17.8876 7.18397 17.1799V16.8308H9.74843L9.74744 17.1799ZM14.2811 15.2827L2.65027 15.2818C2.157 15.2818 1.72143 14.9587 1.5791 14.4856C1.43775 14.0125 1.62237 13.5029 2.03488 13.2308L2.31181 13.0769C2.81374 12.7491 3.11469 12.1894 3.11181 11.5894V7.94901C3.10893 6.52495 3.67143 5.15858 4.6753 4.14885C5.67915 3.13922 7.04167 2.56902 8.46561 2.56422H8.63003C10.0589 2.65076 11.3993 3.28635 12.3723 4.33731C13.3445 5.38731 13.8743 6.7729 13.8502 8.20467V11.5999C13.8435 12.1903 14.132 12.7441 14.6195 13.0768L14.8656 13.2413C15.2781 13.5124 15.4628 14.023 15.3214 14.4951C15.1791 14.9682 14.7435 15.2923 14.2502 15.2923L14.2811 15.2827Z" fill="#939393"/>
</svg>
