<svg width="16" height="16" viewBox="0 0 16 16" fill="none" xmlns="http://www.w3.org/2000/svg">
<path d="M6.81674 0.000105951H6.81814C8.70035 0.000105951 10.4055 0.763759 11.6374 1.99646L11.7011 2.06505C12.8939 3.29068 13.6296 4.96703 13.6289 6.81502H13.6331V6.81642C13.6331 8.29892 13.1585 9.67359 12.3542 10.7928L15.6777 14.1162C16.1081 14.5467 16.1081 15.246 15.6777 15.6771C15.2465 16.1076 14.5472 16.1076 14.1168 15.6771L10.7933 12.3537C9.6741 13.158 8.29938 13.6325 6.81694 13.6325H6.81554C4.93405 13.6325 3.22888 12.8689 1.99695 11.6362C0.76642 10.4064 0.00561656 8.70052 0.0048998 6.8176H0V6.8162C0 4.93471 0.764352 3.22828 1.99707 1.99635C3.229 0.763724 4.93542 0 6.81691 0L6.81674 0.000105951ZM6.81814 2.20629H6.81674C5.54421 2.20629 4.39069 2.72356 3.5571 3.55652C2.72416 4.39086 2.20687 5.54373 2.20687 6.81616V6.81756H2.20197C2.20197 8.08518 2.72134 9.23949 3.55709 10.0752C4.39074 10.9089 5.54359 11.4262 6.81548 11.4262H6.81688C8.08941 11.4262 9.24221 10.9089 10.076 10.0752C10.9096 9.24158 11.4269 8.08873 11.4269 6.81613V6.81473H11.4311C11.4311 5.573 10.9362 4.44118 10.1334 3.60884L10.0767 3.55635C9.24374 2.7234 8.09019 2.20612 6.8183 2.20612" fill="#E7E7E7"/>
</svg>
